<?xml version="1.0" encoding="UTF-8"?><svg id="Layer_2" xmlns="http://www.w3.org/2000/svg" xmlns:xlink="http://www.w3.org/1999/xlink" viewBox="0 0 206.62 206.61"><defs><style>.cls-1{fill:url(#linear-gradient-2);}.cls-2{fill:#fff;}.cls-3{fill:url(#radial-gradient);}.cls-4{fill:url(#linear-gradient-3);}.cls-5{fill:url(#linear-gradient);}</style><radialGradient id="radial-gradient" cx="103.31" cy="103.31" fx="103.31" fy="103.31" r="103.31" gradientTransform="matrix(1, 0, 0, 1, 0, 0)" gradientUnits="userSpaceOnUse"><stop offset=".55" stop-color="#fadcd2"/><stop offset="1" stop-color="#eda9b2"/></radialGradient><linearGradient id="linear-gradient" x1="60.65" y1="96.02" x2="93.4" y2="152.73" gradientTransform="matrix(1, 0, 0, 1, 0, 0)" gradientUnits="userSpaceOnUse"><stop offset="0" stop-color="#a7d7e8"/><stop offset=".22" stop-color="#a4d6e7"/><stop offset=".37" stop-color="#9ad3e6"/><stop offset=".51" stop-color="#8bcfe4"/><stop offset=".63" stop-color="#75c9e2"/><stop offset=".74" stop-color="#59c2df"/><stop offset=".85" stop-color="#36b9db"/><stop offset=".9" stop-color="#23b4d9"/></linearGradient><linearGradient id="linear-gradient-2" x1="71.52" y1="109.5" x2="116.78" y2="154.77" gradientTransform="matrix(1, 0, 0, 1, 0, 0)" gradientUnits="userSpaceOnUse"><stop offset="0" stop-color="#a7d7e8"/><stop offset="1" stop-color="#53c4dd"/></linearGradient><linearGradient id="linear-gradient-3" x1="31.76" y1="78.28" x2="185.73" y2="167.18" gradientTransform="matrix(1, 0, 0, 1, 0, 0)" gradientUnits="userSpaceOnUse"><stop offset=".5" stop-color="#53c4dd"/><stop offset=".94" stop-color="#1cb5da"/></linearGradient></defs><g id="Layer_19"><path class="cls-3" d="M206.62,103.31c0,16.66-3.94,32.4-10.96,46.33-16.97,33.79-51.95,56.97-92.35,56.97-13.43,0-26.27-2.56-38.04-7.23-9.54-3.78-18.38-8.94-26.28-15.24-10.53-8.38-19.38-18.78-25.97-30.61C4.72,138.67,0,121.54,0,103.31,0,46.25,46.26,0,103.31,0s103.31,46.25,103.31,103.31Z"/><path class="cls-5" d="M112.29,124.05c-27.05,15.68-44.77,15.59-61.14,33.16-7.71,8.28-11.12,17.72-12.16,26.93-10.53-8.38-19.38-18.78-25.97-30.61,2.99-10.69,10.04-20.17,21.62-25.95,11.62-5.81,17.75-5.22,45.86-11.52,23.08-5.18,38.83-11.85,42.8-23.05,3.5-9.86-3.69-22.41-12.66-25.85,.93-.4,1.83-.81,2.7-1.2,5.22,1.15,9.85,3.04,12.71,5.65,15.58,14.22,7.04,40.39-13.76,52.44Z"/><path class="cls-1" d="M133.39,136.28c-17.53,19.64-36.99,19.99-54.42,34.81-2.13,1.81-12.49,13.96-13.7,28.29-9.54-3.78-18.38-8.94-26.28-15.24,1.04-9.21,4.45-18.65,12.16-26.93,16.37-17.57,34.09-17.48,61.14-33.16,20.8-12.05,29.34-38.22,13.76-52.44-2.86-2.61-7.49-4.5-12.71-5.65,5.54-2.5,10.15-4.33,15.77-2.82,13.61,3.65,16.47,22.39,17.43,28.69,.68,4.53,3.86,25.39-13.15,44.45Z"/><path class="cls-4" d="M195.66,149.64c-16.97,33.79-51.95,56.97-92.35,56.97-13.43,0-26.27-2.56-38.04-7.23,1.21-14.33,11.57-26.48,13.7-28.29,17.43-14.82,36.89-15.17,54.42-34.81,17.01-19.06,13.83-39.92,13.15-44.45-.96-6.3-3.82-25.04-17.43-28.69-5.62-1.51-10.23,.32-15.77,2.82-.87,.39-1.77,.8-2.7,1.2-5.72,2.57-12.62,5.34-22.5,5.86-11.53,.61-25.95-1.91-34.08-7.44-2.43-1.65-4.3-3.55-5.36-5.73-3.94-8.05,3.23-19.38,15.05-27.42,6.24-4.25,13.77-7.58,21.64-9.03,13.11-2.42,25.55,.67,35.98,5.38,12.42,5.62,21.98,13.54,26.39,17.19,11.51,9.54,18.54,20.28,22.8,29.23,4.43,9.3,5.87,16.66,6.24,18.75,3.07,16.98-2.31,24.99,5.51,39.51,3.55,6.6,8.43,11.95,13.35,16.18Z"/><path class="cls-2" d="M76.56,43.28c-2,.19-3.72-.7-3.84-2.01s1.39-2.52,3.38-2.71,3.84,2.01,3.84,2.01c0,0-1.39,2.52-3.38,2.71Z"/></g></svg>