<?xml version="1.0" encoding="UTF-8"?><svg id="Layer_2" xmlns="http://www.w3.org/2000/svg" viewBox="0 0 191.14 191.14"><defs><style>.cls-1{fill:#eda9b2;font-family:Aclonica-Regular, Aclonica;font-size:16.2px;}.cls-2{fill:none;stroke:#eda9b2;stroke-miterlimit:10;stroke-width:3px;}</style></defs><g id="Layer_19"><path class="cls-2" d="M36.68,83.21c9.56-3.4,11.49,2.03,21.04-1.37s7.63-8.83,17.19-12.23,11.49,2.03,21.05-1.37,7.63-8.83,17.19-12.23,11.49,2.03,21.05-1.37"/><path class="cls-2" d="M45.3,107.45c9.56-3.4,11.49,2.03,21.04-1.37s7.63-8.83,17.19-12.23,11.49,2.03,21.05-1.37,7.63-8.83,17.19-12.23,11.49,2.03,21.05-1.37"/><path class="cls-2" d="M53.92,131.69c9.56-3.4,11.49,2.03,21.04-1.37s7.63-8.83,17.19-12.23,11.49,2.03,21.05-1.37c9.56-3.4,7.63-8.83,17.19-12.23s11.49,2.03,21.05-1.37"/><circle class="cls-2" cx="95.57" cy="95.57" r="94.07"/><circle class="cls-2" cx="95.57" cy="95.57" r="67.79"/><text class="cls-1" transform="translate(58.43 27.1) rotate(-26.34) scale(.96 1)"><tspan x="0" y="0">S</tspan></text><text class="cls-1" transform="translate(67.73 22.46) rotate(-18.27) scale(.96 1)"><tspan x="0" y="0">u</tspan></text><text class="cls-1" transform="translate(77.49 19.21) rotate(-10.14) scale(.96 1)"><tspan x="0" y="0">n</tspan></text><text class="cls-1" transform="translate(87.73 17.52) rotate(-4.41) scale(.96 1)"><tspan x="0" y="0"> </tspan></text><text class="cls-1" transform="translate(91.96 17.19) rotate(-1.11) scale(.96 1)"><tspan x="0" y="0">.</tspan></text><text class="cls-1" transform="translate(96.16 17.11) rotate(2.17) scale(.96 1)"><tspan x="0" y="0"> </tspan></text><text class="cls-1" transform="translate(100.32 17.15) rotate(7.31) scale(.96 1)"><tspan x="0" y="0">s</tspan></text><text class="cls-1" transform="translate(109.07 18.2) rotate(14.86) scale(.96 1)"><tspan x="0" y="0">u</tspan></text><text class="cls-1" transform="translate(119.02 20.88) rotate(22.15) scale(.96 1)"><tspan x="0" y="0">r</tspan></text><text class="cls-1" transform="translate(126.64 24) rotate(28.19) scale(.96 1)"><tspan x="0" y="0">f</tspan></text><text class="cls-1" transform="translate(133.11 27.52) rotate(32.63) scale(.96 1)"><tspan x="0" y="0"> </tspan></text><text class="cls-1" transform="translate(136.71 29.82) rotate(35.87) scale(.96 1)"><tspan x="0" y="0">.</tspan></text><text class="cls-1" transform="translate(140.11 32.28) rotate(39.06) scale(.96 1)"><tspan x="0" y="0"> </tspan></text><text class="cls-1" transform="translate(143.41 34.81) rotate(43.94) scale(.96 1)"><tspan x="0" y="0">s</tspan></text><text class="cls-1" transform="translate(149.82 40.89) rotate(51.12) scale(.96 1)"><tspan x="0" y="0">a</tspan></text><text class="cls-1" transform="translate(156.51 49.16) rotate(58.74) scale(.96 1)"><tspan x="0" y="0">n</tspan></text><text class="cls-1" transform="translate(161.88 57.94) rotate(66.28) scale(.96 1)"><tspan x="0" y="0">d</tspan></text><text class="cls-1" transform="translate(166.06 67.81) rotate(71.61) scale(.96 1)"><tspan x="0" y="0"> </tspan></text><text class="cls-1" transform="translate(167.41 71.85) rotate(74.64) scale(.96 1)"><tspan x="0" y="0">.</tspan></text><text class="cls-1" transform="translate(168.53 75.91) rotate(77.65) scale(.96 1)"><tspan x="0" y="0"> </tspan></text><text class="cls-1" transform="translate(169.57 79.95) rotate(82.91) scale(.96 1)"><tspan x="0" y="0">d</tspan></text><text class="cls-1" transform="translate(170.77 90.61) rotate(88.22) scale(.96 1)"><tspan x="0" y="0">i</tspan></text><text class="cls-1" transform="translate(171.05 95.1) rotate(93.35) scale(.96 1)"><tspan x="0" y="0">n</tspan></text><text class="cls-1" transform="translate(170.48 105.4) rotate(100.66) scale(.96 1)"><tspan x="0" y="0">o</tspan></text><text class="cls-1" transform="translate(168.5 115.76) rotate(107.55) scale(.96 1)"><tspan x="0" y="0">s</tspan></text><text class="cls-1" transform="translate(165.72 124.25) rotate(112.25) scale(.96 1)"><tspan x="0" y="0"> </tspan></text><text class="cls-1" transform="translate(164.11 128.19) rotate(115.3) scale(.96 1)"><tspan x="0" y="0">.</tspan></text><text class="cls-1" transform="translate(162.31 132) rotate(118.35) scale(.96 1)"><tspan x="0" y="0"> </tspan></text><text class="cls-1" transform="translate(160.49 135.73) rotate(123.73) scale(.96 1)"><tspan x="0" y="0">d</tspan></text><text class="cls-1" transform="translate(154.42 144.58) rotate(129.28) scale(.96 1)"><tspan x="0" y="0">i</tspan></text><text class="cls-1" transform="translate(151.72 148.13) rotate(134.86) scale(.96 1)"><tspan x="0" y="0">g</tspan></text><text class="cls-1" transform="translate(144.07 155.63) rotate(140.53) scale(.96 1)"><tspan x="0" y="0">i</tspan></text><text class="cls-1" transform="translate(140.75 158.58) rotate(146.25) scale(.96 1)"><tspan x="0" y="0">a</tspan></text><text class="cls-1" transform="translate(131.78 164.4) rotate(152.05) scale(.96 1)"><tspan x="0" y="0">l</tspan></text><text class="cls-1" transform="translate(127.76 166.54) rotate(155.48) scale(.96 1)"><tspan x="0" y="0"> </tspan></text><text class="cls-1" transform="translate(123.9 168.3) rotate(158.79) scale(.96 1)"><tspan x="0" y="0">.</tspan></text><text class="cls-1" transform="translate(119.98 169.83) rotate(162.12) scale(.96 1)"><tspan x="0" y="0"> </tspan></text><text class="cls-1" transform="translate(116.21 171.44) rotate(169.63) scale(.96 1)"><tspan x="0" y="0">m</tspan></text><text class="cls-1" transform="translate(101.6 173.91) rotate(179.03) scale(.96 1)"><tspan x="0" y="0">a</tspan></text><text class="cls-1" transform="translate(91.01 173.99) rotate(-173.09) scale(.96 1)"><tspan x="0" y="0">r</tspan></text><text class="cls-1" transform="translate(82.85 173.06) rotate(-166.04) scale(.96 1)"><tspan x="0" y="0">k</tspan></text><text class="cls-1" transform="translate(73.87 170.88) rotate(-158.72) scale(.96 1)"><tspan x="0" y="0">e</tspan></text><text class="cls-1" transform="translate(64.83 167.29) rotate(-152.26) scale(.96 1)"><tspan x="0" y="0">t</tspan></text><text class="cls-1" transform="translate(58.72 164.03) rotate(-147.85) scale(.96 1)"><tspan x="0" y="0">i</tspan></text><text class="cls-1" transform="translate(54.84 161.78) rotate(-142.19) scale(.96 1)"><tspan x="0" y="0">n</tspan></text><text class="cls-1" transform="translate(46.68 155.49) rotate(-134.39) scale(.96 1)"><tspan x="0" y="0">g</tspan></text><text class="cls-1" transform="translate(39.29 147.74) rotate(-128.92) scale(.96 1)"><tspan x="0" y="0"> </tspan></text><text class="cls-1" transform="translate(36.62 144.43) rotate(-125.83) scale(.96 1)"><tspan x="0" y="0">.</tspan></text><text class="cls-1" transform="translate(34.16 141.03) rotate(-122.76) scale(.96 1)"><tspan x="0" y="0"> </tspan></text><text class="cls-1" transform="translate(31.81 137.57) rotate(-118.01) scale(.96 1)"><tspan x="0" y="0">s</tspan></text><text class="cls-1" transform="translate(27.6 129.8) rotate(-111.12) scale(.96 1)"><tspan x="0" y="0">u</tspan></text><text class="cls-1" transform="translate(23.86 120.18) rotate(-103.75) scale(.96 1)"><tspan x="0" y="0">n</tspan></text><text class="cls-1" transform="translate(21.51 110.03) rotate(-98.58) scale(.96 1)"><tspan x="0" y="0"> </tspan></text><text class="cls-1" transform="translate(20.87 105.82) rotate(-95.61) scale(.96 1)"><tspan x="0" y="0">.</tspan></text><text class="cls-1" transform="translate(20.45 101.62) rotate(-92.66) scale(.96 1)"><tspan x="0" y="0"> </tspan></text><text class="cls-1" transform="translate(20.16 97.43) rotate(-88.13) scale(.96 1)"><tspan x="0" y="0">s</tspan></text><text class="cls-1" transform="translate(20.38 88.59) rotate(-81.44) scale(.96 1)"><tspan x="0" y="0">u</tspan></text><text class="cls-1" transform="translate(21.97 78.36) rotate(-74.85) scale(.96 1)"><tspan x="0" y="0">r</tspan></text><text class="cls-1" transform="translate(24.14 70.38) rotate(-69.28) scale(.96 1)"><tspan x="0" y="0">f</tspan></text><text class="cls-1" transform="translate(26.79 63.51) rotate(-65.13) scale(.96 1)"><tspan x="0" y="0"> </tspan></text><text class="cls-1" transform="translate(28.58 59.64) rotate(-62.07) scale(.96 1)"><tspan x="0" y="0">.</tspan></text><text class="cls-1" transform="translate(30.54 55.93) rotate(-59.02) scale(.96 1)"><tspan x="0" y="0"> </tspan></text><text class="cls-1" transform="translate(32.6 52.29) rotate(-54.26) scale(.96 1)"><tspan x="0" y="0">s</tspan></text><text class="cls-1" transform="translate(37.7 45.08) rotate(-47.12) scale(.96 1)"><tspan x="0" y="0">a</tspan></text><text class="cls-1" transform="translate(45.02 37.32) rotate(-40.62) scale(.96 1)"><tspan x="0" y="0">t</tspan></text><text class="cls-1" transform="translate(49.82 33.23) rotate(-36.92) scale(.96 1)"><tspan x="0" y="0">.</tspan></text></g></svg>