<?xml version="1.0" encoding="UTF-8"?><svg id="Layer_2" xmlns="http://www.w3.org/2000/svg" viewBox="0 0 263.58 120.14"><defs><style>.cls-1{font-family:Aclonica-Regular, Aclonica;font-size:21px;}.cls-1,.cls-2{fill:#4097bd;}</style></defs><g id="Layer_16_copy"><path class="cls-2" d="M57.86,63.37c-14.93,.12-21.44-9.29-21.39-21.25,.02-3.65,.74-6.98,2.22-9.99,1.48-3,3.61-5.39,6.39-7.17,2.41-1.54,5.24-2.41,8.49-2.61,2.21-.14,5.69,.44,7.66,1.45,.84,.43,1.55,.91,2.12,1.42,.31,.28,.79,.07,.79-.34v-7.39c0-2.04,.47-4.37,1.41-7.01,.94-2.63,2.77-4.98,5.5-7.05s6.74-3.22,12.03-3.45c4.45,0,8.14,1.12,11.08,3.38,2.62,2.01,4.3,4.29,5.04,6.83,.29,.95,.44,1.84,.44,2.66,0,2.36-1.03,4.1-3.1,5.24-.85,.45-1.72,.67-2.62,.67-1.64,0-3.07-.54-4.29-1.63-.98-.98-1.47-2.36-1.47-4.13,0-.85,.13-1.56,.4-2.14,.34-.69,.7-1.32,1.07-1.91,.29-.45,.54-.87,.73-1.27,.2-.4,.3-.79,.3-1.19-.13-.95-.88-1.72-2.24-2.3-1.36-.58-2.84-.87-4.43-.87l-1.15,.08s-.05,0-.08,.01c-2.36,.48-4.11,1.99-5.24,4.52-1.14,2.54-1.72,5.45-1.75,8.73l.36,35.22h0c-2.6,10.01-14.6,11.48-18.28,11.48Zm-.62-4.37c1.51,0,2.92-.36,4.25-1.07,.66-.34,1.23-.83,1.71-1.45s.79-1.29,.95-2.01h0V29.82h0c-.19-.37-.62-.85-1.31-1.43-.45-.34-.97-.61-1.55-.79-.69-.21-1.35-.32-1.98-.32-1.99,0-3.75,.6-5.3,1.79-1.55,1.19-2.82,2.83-3.81,4.9-.99,2.08-1.69,4.45-2.08,7.13-.24,1.62-.36,3.22-.36,4.8,0,2.83,.47,5.41,1.41,7.74,.94,2.33,2.54,3.93,4.79,4.8,1.22,.37,2.32,.56,3.29,.56Z"/><path class="cls-2" d="M24.04,99.49l-.04-10.13c.03-.45,.04-9.03,.04-25.73-.08-3.2-.69-6.04-1.83-8.52-1.12-2.45-2.83-3.92-5.12-4.41-.05-.01-.11-.02-.17-.02l-1.11-.07c-1.59,0-3.06,.29-4.43,.87s-2.04,1.28-2.22,2.16c-.02,.09-.03,.18-.02,.27,.05,.57,.39,1.35,1.03,2.33,.37,.58,.73,1.22,1.07,1.91,.26,.58,.4,1.3,.4,2.14,0,1.77-.49,3.15-1.47,4.13-1.22,1.09-2.65,1.63-4.29,1.63-.9,0-1.76-.22-2.58-.67-.98-.53-1.74-1.24-2.28-2.12-.54-.89-.81-1.93-.81-3.12,0-.82,.13-1.71,.4-2.66,.74-2.54,2.42-4.82,5.04-6.83,2.94-2.25,6.63-3.38,11.08-3.38,5.32,.24,9.34,1.39,12.07,3.45,2.73,2.06,4.55,4.42,5.48,7.07,.93,2.65,1.39,4.99,1.39,7.03v6.37c0,.78,.88,1.19,1.51,.74,.42-.3,.89-.58,1.42-.85,2.37-1.21,5.06-1.62,7.72-1.45,3.23,.21,6.05,1.08,8.45,2.61,2.78,1.77,4.91,4.16,6.39,7.17,1.48,3,2.22,6.36,2.22,10.07s-.9,7.32-2.7,10.44c-1.69,2.96-4.03,5.31-7.01,7.05-2.98,1.73-9.34,3.49-12.78,3.31-4.67-.24-16.86-5.26-16.86-10.8Zm18.58,6.75c.95,0,2.04-.19,3.26-.56,1.56-.58,2.78-1.61,3.65-3.08,.87-1.47,1.49-3.17,1.85-5.1,.36-1.93,.54-3.8,.54-5.6,0-1.3-.07-2.49-.2-3.57-.48-4.08-1.71-7.4-3.69-9.97-1.99-2.57-4.47-3.85-7.46-3.85-.64,0-1.3,.11-1.99,.32-.58,.21-1.1,.49-1.55,.83-.58,.47-.98,.87-1.22,1.21-.1,.14-.13,.31-.13,.49v24.19c0,.09,0,.17,.03,.26,.17,.67,.48,1.3,.94,1.9,.49,.63,1.06,1.12,1.73,1.47,1.32,.71,2.74,1.07,4.25,1.07Z"/><path class="cls-2" d="M22.07,39.93l-3.54,4.15c-.49,.58-.17,1.47,.57,1.61l5.37,.99c.75,.14,1.36-.59,1.11-1.3l-1.83-5.14c-.25-.72-1.19-.89-1.68-.31Z"/><path class="cls-2" d="M10.99,40.48l-1.94,5.1c-.27,.71,.33,1.45,1.08,1.32l5.39-.88c.75-.12,1.09-1.01,.61-1.6l-3.45-4.23c-.48-.59-1.42-.44-1.69,.27Z"/><path class="cls-2" d="M0,45.23l.73,5.41c.1,.75,.98,1.11,1.58,.65l4.32-3.34c.6-.46,.47-1.41-.23-1.69l-5.05-2.07c-.7-.29-1.45,.29-1.35,1.04Z"/><path class="cls-2" d="M95.52,62h-3.52c-2.09,0-3.78-1.69-3.78-3.78V28.07c0-2.09,1.69-3.78,3.78-3.78h3.52c2.09,0,3.78,1.69,3.78,3.78v30.15c0,2.09-1.69,3.78-3.78,3.78Z"/><path class="cls-2" d="M142.71,40.28c0,2.59-.32,5.29-.95,8.1-.63,2.81-1.51,5.56-2.64,8.26-1.13,2.7-1.42,2.41-2.99,4.79-1.29,1.96-8,.93-7.7,.15,.53-1.37-.05,0,.38-1.54,.43-1.54,.82-3.12,1.16-4.76,.34-1.64,.63-3.26,.86-4.86,.23-1.6,.41-3.16,.53-4.68,.12-1.51,.18-2.92,.18-4.23,0-.86-.03-1.79-.1-2.77-.07-.98-.2-1.97-.42-2.95-.21-.98-.49-1.93-.85-2.84-.35-.91-.82-1.7-1.41-2.39-.59-.69-1.29-1.24-2.12-1.66-.83-.42-1.81-.63-2.94-.63s-2.09,.25-2.95,.75c-.86,.5-1.63,1.15-2.29,1.96-.66,.81-1.23,1.73-1.71,2.77-.48,1.04-.86,2.11-1.16,3.2-.3,1.09-.51,2.17-.65,3.24s-.2,2.01-.2,2.85v17.45c0,.98-.79,1.77-1.77,1.77h-7.71c-.98,0-1.77-.79-1.77-1.77V25.69c0-.98,.79-1.77,1.77-1.77h1.52c.63,0,1.22,.34,1.53,.89l3.02,5.25c.66,1.15,2.31,1.19,3.01,.07,.29-.46,.59-.9,.92-1.33,.93-1.22,1.98-2.26,3.15-3.12,1.17-.86,2.47-1.53,3.9-1.99,1.43-.46,2.97-.7,4.63-.7,2.65,0,4.97,.43,6.94,1.29,1.97,.86,3.61,2.06,4.91,3.6,1.31,1.54,2.28,3.36,2.92,5.48,.64,2.11,.96,4.42,.96,6.92Z"/><path class="cls-2" d="M193.07,43.14c0,2.17-.29,4.2-.87,6.11-.58,1.9-1.38,3.66-2.4,5.28-1.02,1.61-2.26,3.07-3.7,4.35-1.45,1.29-3.03,2.38-4.75,3.27-1.72,.89-3.56,1.58-5.53,2.06-1.96,.48-3.98,.72-6.05,.72s-4.08-.24-6.03-.72-3.79-1.17-5.51-2.06c-1.72-.89-3.31-1.98-4.75-3.27-1.45-1.29-2.68-2.74-3.7-4.35-1.02-1.61-1.82-3.38-2.4-5.29-.58-1.91-.87-3.94-.87-6.09s.29-4.17,.87-6.09c.58-1.92,1.38-3.68,2.4-5.29,1.02-1.61,2.26-3.07,3.7-4.35,1.45-1.29,3.03-2.38,4.75-3.27,1.72-.89,3.56-1.58,5.51-2.06,1.95-.48,3.96-.72,6.03-.72s4.09,.24,6.05,.72c1.96,.48,3.81,1.17,5.53,2.06,1.72,.89,3.31,1.98,4.75,3.27,1.45,1.29,2.68,2.74,3.7,4.35,1.02,1.61,1.83,3.38,2.4,5.29,.58,1.91,.87,3.94,.87,6.09Zm-12.43,0c0-1.16-.07-2.38-.2-3.67-.13-1.29-.36-2.55-.67-3.79-.31-1.24-.74-2.43-1.28-3.58-.54-1.14-1.21-2.14-2.01-3-.79-.86-1.75-1.54-2.85-2.06-1.11-.52-2.4-.78-3.87-.78s-2.64,.27-3.72,.79c-1.08,.53-2.03,1.23-2.84,2.11-.81,.88-1.48,1.9-2.02,3.05-.54,1.16-.98,2.35-1.32,3.6-.34,1.24-.58,2.49-.72,3.76-.14,1.26-.22,2.45-.22,3.56s.07,2.29,.22,3.56c.14,1.27,.38,2.52,.72,3.78,.34,1.25,.78,2.45,1.32,3.59,.54,1.14,1.22,2.16,2.02,3.04,.81,.88,1.75,1.58,2.84,2.11,1.08,.53,2.32,.79,3.72,.79s2.72-.26,3.83-.78c1.11-.52,2.07-1.21,2.87-2.08,.81-.87,1.47-1.87,2-3,.53-1.13,.96-2.32,1.28-3.58,.33-1.25,.55-2.52,.69-3.79,.13-1.28,.2-2.49,.2-3.65Z"/><path class="cls-2" d="M106.95,80.73c0,1.71-.28,3.23-.83,4.57-.55,1.34-1.31,2.51-2.26,3.52-.95,1.01-2.05,1.87-3.31,2.57-1.25,.7-2.59,1.27-4.01,1.72-1.42,.45-2.88,.77-4.39,.96-1.5,.19-2.97,.29-4.39,.29-1.81,0-3.59-.13-5.35-.38-.74-.11-1.47-.24-2.2-.4-1.42-.31-2.67,1.04-2.22,2.42,.14,.44,.3,.87,.47,1.3,.58,1.43,1.35,2.69,2.31,3.76,.96,1.07,2.15,1.92,3.56,2.55,1.41,.63,3.08,.94,5,.94,1.28,0,2.49-.19,3.65-.58,1.16-.38,2.22-.93,3.18-1.63,.96-.7,1.81-1.53,2.55-2.49,.4-.53,.76-1.09,1.08-1.68,.46-.85,1.45-1.26,2.35-.92l1.63,.6c1.13,.42,1.58,1.76,.97,2.79s-1.38,2.02-2.24,2.88c-1.39,1.39-2.95,2.53-4.7,3.43-1.75,.9-3.6,1.57-5.56,2-1.96,.43-3.91,.65-5.84,.65-3.18,0-6.12-.54-8.82-1.61-2.7-1.07-5.02-2.57-6.97-4.5-1.95-1.93-3.48-4.23-4.59-6.9-1.11-2.67-1.66-5.6-1.66-8.78s.55-6.11,1.66-8.78c1.11-2.67,2.64-4.97,4.59-6.9,1.95-1.93,4.28-3.43,6.97-4.5,2.7-1.07,5.64-1.61,8.82-1.61,1.54,0,3.12,.11,4.73,.33,1.61,.22,3.18,.56,4.7,1.03,1.52,.47,2.95,1.08,4.3,1.83,1.35,.75,2.52,1.67,3.52,2.76,1,1.1,1.79,2.37,2.38,3.81,.59,1.45,.88,3.1,.88,4.95Zm-30.1,8.24c1.49,.34,2.99,.6,4.48,.79,1.49,.19,3,.29,4.52,.29s3.07-.15,4.43-.45c1.36-.3,2.54-.81,3.54-1.52,1-.71,1.79-1.66,2.37-2.84,.58-1.18,.87-2.65,.87-4.41,0-1.42-.19-2.72-.58-3.9-.39-1.18-.96-2.19-1.72-3.04-.76-.84-1.69-1.5-2.8-1.97-1.11-.47-2.4-.7-3.87-.7-1.37,0-2.61,.25-3.7,.76-1.1,.51-2.06,1.19-2.89,2.04-.83,.86-1.54,1.85-2.13,2.98-.59,1.13-1.08,2.31-1.46,3.54-.39,1.23-.66,2.47-.83,3.72-.17,1.25-.25,2.43-.25,3.54v.58c0,.19,.01,.39,.04,.58Z"/><path class="cls-2" d="M152.31,110.12h-9.4c-.78,0-1.41-.63-1.41-1.41h0c0-1.2-1.4-1.85-2.31-1.07s-1.86,1.39-2.91,1.88c-2.04,.95-4.27,1.43-6.7,1.43-3.18,0-6.02-.57-8.53-1.7-2.51-1.13-4.62-2.68-6.36-4.64-1.73-1.96-3.06-4.27-3.97-6.92-.92-2.65-1.37-5.49-1.37-8.53s.46-5.88,1.37-8.53c.92-2.65,2.24-4.96,3.97-6.92,1.73-1.96,3.85-3.51,6.36-4.64,2.5-1.13,5.35-1.7,8.53-1.7,1.61,0,3.15,.24,4.61,.72,1.46,.48,2.79,1.16,4.01,2.04,1.22,.88,2.29,1.94,3.22,3.18,.41,.56,.79,1.14,1.13,1.75,.53,.96,1.88,1.01,2.45,.07l3.62-6.06c.25-.42,.71-.69,1.21-.69h2.49c.78,0,1.41,.63,1.41,1.41v38.92c0,.78-.63,1.41-1.41,1.41Zm-10.88-20.96c0-1.08-.05-2.23-.16-3.43-.11-1.2-.3-2.4-.56-3.58-.27-1.18-.63-2.31-1.1-3.38-.47-1.07-1.07-2.02-1.81-2.85-.74-.83-1.62-1.49-2.66-1.97-1.04-.48-2.24-.72-3.61-.72s-2.57,.25-3.58,.74c-1.01,.49-1.88,1.16-2.6,1.99-.72,.83-1.32,1.79-1.79,2.87-.47,1.08-.84,2.22-1.1,3.4-.27,1.18-.45,2.37-.56,3.56-.11,1.19-.16,2.32-.16,3.38s.05,2.19,.16,3.4c.11,1.21,.29,2.4,.56,3.58,.26,1.18,.63,2.31,1.1,3.4,.47,1.08,1.07,2.04,1.79,2.87,.72,.83,1.59,1.49,2.6,1.99,1.01,.49,2.2,.74,3.58,.74,1.25,0,2.37-.26,3.34-.78,.98-.52,1.83-1.21,2.57-2.08,.73-.87,1.35-1.85,1.86-2.96,.51-1.11,.92-2.25,1.23-3.43,.31-1.18,.54-2.35,.69-3.52,.14-1.17,.22-2.23,.22-3.2Z"/><path class="cls-2" d="M195.02,79.12l-1.6,.64c-.96,.38-2.02-.08-2.45-1.02-.85-1.83-2.04-3.29-3.56-4.38-1.98-1.42-4.35-2.13-7.12-2.13-1.49,0-2.82,.24-3.99,.7-1.17,.47-2.19,1.12-3.07,1.93-.88,.82-1.63,1.77-2.24,2.85-.62,1.08-1.12,2.24-1.5,3.47-.39,1.23-.66,2.5-.83,3.81-.17,1.31-.25,2.58-.25,3.81,0,1.33,.07,2.66,.22,4.01,.14,1.35,.39,2.64,.74,3.88,.35,1.24,.81,2.4,1.39,3.47,.58,1.07,1.31,2.01,2.19,2.8,.88,.79,1.93,1.42,3.14,1.88,1.22,.46,2.62,.69,4.21,.69,1.28,0,2.49-.19,3.65-.58,1.16-.38,2.22-.93,3.18-1.63,.96-.7,1.82-1.53,2.57-2.49,.4-.52,.76-1.08,1.08-1.66,.46-.86,1.45-1.28,2.36-.94l1.65,.6c1.12,.41,1.59,1.74,.98,2.78s-1.33,2.02-2.15,2.88c-1.31,1.39-2.8,2.53-4.46,3.43-1.66,.9-3.45,1.57-5.35,2-1.9,.43-3.83,.65-5.78,.65-3.16,0-6.08-.54-8.78-1.61-2.7-1.07-5.03-2.58-6.99-4.52-1.96-1.94-3.5-4.24-4.61-6.9-1.11-2.66-1.66-5.58-1.66-8.76s.55-6.14,1.64-8.82c1.1-2.67,2.62-4.97,4.57-6.9,1.95-1.93,4.28-3.42,6.97-4.48,2.7-1.06,5.65-1.59,8.85-1.59,2.02,0,4,.22,5.93,.67,1.93,.45,3.72,1.13,5.37,2.06,1.65,.93,3.13,2.1,4.45,3.52,.85,.92,1.59,1.96,2.22,3.11,.56,1.02,.13,2.31-.95,2.74Z"/><path class="cls-2" d="M241.13,85.85c0,2.82-.34,5.76-1.03,8.82-.69,3.06-1.64,6.06-2.87,9-1.23,2.94-2.7,5.7-4.41,8.29-1.33,2.01-2.76,3.81-4.29,5.39-.77,.79-1.97,.98-2.94,.45l-.94-.51c-1.11-.61-1.59-1.97-1.07-3.12,.29-.65,.58-1.33,.85-2.04,.58-1.49,1.1-3.08,1.57-4.75,.47-1.67,.89-3.4,1.26-5.19,.37-1.78,.69-3.55,.94-5.29,.25-1.75,.45-3.45,.58-5.1,.13-1.65,.2-3.18,.2-4.61,0-.94-.04-1.95-.11-3.02-.07-1.07-.22-2.14-.45-3.22-.23-1.07-.54-2.1-.92-3.09-.39-.99-.9-1.85-1.54-2.6-.64-.75-1.41-1.35-2.31-1.81-.9-.46-1.97-.69-3.2-.69s-2.28,.27-3.22,.81c-.94,.54-1.77,1.25-2.49,2.13-.72,.88-1.34,1.88-1.86,3.02-.52,1.13-.94,2.29-1.26,3.49-.33,1.19-.56,2.37-.71,3.52s-.22,2.19-.22,3.11v18.48c0,1.35-1.09,2.44-2.44,2.44h-7.37c-1.35,0-2.44-1.09-2.44-2.44V55.12c0-1.35,1.09-2.44,2.44-2.44h7.33c1.35,0,2.44,1.09,2.44,2.44v13.08c0,2.01,2.28,3.08,3.9,1.88,.59-.44,1.21-.84,1.86-1.19,2.28-1.24,4.8-1.86,7.57-1.86s5.41,.47,7.55,1.41c2.14,.94,3.93,2.25,5.35,3.92,1.42,1.67,2.48,3.66,3.18,5.96,.7,2.3,1.05,4.81,1.05,7.53Z"/><text class="cls-1" transform="translate(230.73 63.21) rotate(33.64) scale(1.04 1)"><tspan x="0" y="0">d</tspan></text><text class="cls-1" transform="translate(241.63 69.89) rotate(68.99) scale(1.04 1)"><tspan x="0" y="0">e</tspan></text><text class="cls-1" transform="translate(246.02 81.38) rotate(93.15) scale(1.04 1)"><tspan x="0" y="0">v</tspan></text></g></svg>