<?xml version="1.0" encoding="UTF-8"?><svg id="Layer_2" xmlns="http://www.w3.org/2000/svg" viewBox="0 0 226.58 291.55"><defs><style>.cls-1{fill:#fadcd2;}</style></defs><g id="Layer_20"><path class="cls-1" d="M116.85,291.38c-10.18,.34-22.24,.83-29.73-6.46-1.92-1.87-3.4-4.15-4.94-6.34-8.82-12.52-57.12-93.53-62.62-103.76-3.69-6.87-7.47-13.71-10.72-20.81-2.83-6.19-6.83-13.51-7.83-20.25-1.84-12.37-1.9-26.23,6.05-35.88-1.55-3-2.97-6.38-4.52-9.38-1.03-1.99-2.07-4.03-2.39-6.25-.16-1.13-.13-2.26,.07-3.38,.45-2.62,3.73-3.59,5.57-1.67,1.25,1.3,2.58,2.56,3.77,3.8,1.57,1.63,3.26,3.18,5.19,4.38,1.2,.74,2.49,1.36,3.54,2.31,1.26,1.14,2.1,2.75,2.31,4.44,13.03,1,25,10.67,31.44,22.05,5.96,10.54,6.87,23.19,11.72,34.28,2.16,4.93,5.06,9.48,7.96,14.02l10.17,15.92c5.84-5.36,5.96-13.94,5.59-21.86-.74-15.78-3.97-31.41-4.01-47.21-.01-5.91,.42-11.86-.51-17.69-.49-3.06-1.34-6.04-2.13-9.03-3.67-13.83-5.96-29.2,.6-41.91,4.01-7.76,11.21-13.81,19.55-16.41,3.08-.96,4.44-5,4.76-8.21s.23-6.65,1.95-9.38c.99-1.57,2.49-2.75,4.07-3.73,1.95-1.21,4.06-2.17,6.25-2.85s3.64,1.9,2.12,3.49c-1.44,1.5-2.65,3.2-3.44,5.23-.38,.98-.62,2.02-.68,3.07-.38,6.25,4.32,8.58,8.47,10.9,7.04,3.94,13.61,8.96,18.37,15.47,4.63,6.31,7.42,17.95,6.52,25.73-2.06,17.74,1.86,36-2.35,53.37-.72,2.98-1.54,5.94-1.81,9-.29,3.39,.12,6.79,.26,10.19,.61,15.38-4.43,30.96-1.14,45.99,18.84-16.06,26.02-42.96,41.57-62.22,1.6-1.98,3.34-3.92,5.57-5.15,1.48-.82,3.13-1.28,4.75-1.75l11.22-3.18c1.76-2.8,2.65-6.4,4.12-9.36s3.6-5.84,6.7-7c.36-.14,.7-.26,1.03-.36,2.28-.71,4.16,2.04,2.56,3.81-2.52,2.79-2.61,8.29-2.14,12.37,.61,5.2,3.29,9.9,4.92,14.88,3.49,10.66,2,22.51-2.37,32.85s-11.42,19.31-19.1,27.48c-7.34,7.8-35.54,63.73-41.43,72.91-3.65,5.69-8.07,9.77-11.73,15.23-7.43,11.11-19.8,17.89-33.16,18.34Z"/></g></svg>