<?xml version="1.0" encoding="UTF-8"?><svg id="Layer_2" xmlns="http://www.w3.org/2000/svg" viewBox="0 0 59.68 39.03"><defs><style>.cls-1{fill:none;stroke:#3f97be;stroke-miterlimit:10;stroke-width:3px;}</style></defs><g id="Layer_19"><path class="cls-1" d="M0,1.5c5.97,0,5.97,5.76,11.93,5.76S17.9,1.5,23.87,1.5s5.97,5.76,11.93,5.76,5.97-5.76,11.94-5.76,5.97,5.76,11.94,5.76"/><path class="cls-1" d="M0,16.63c5.97,0,5.97,5.76,11.93,5.76s5.97-5.76,11.94-5.76,5.97,5.76,11.93,5.76,5.97-5.76,11.94-5.76,5.97,5.76,11.94,5.76"/><path class="cls-1" d="M0,31.77c5.97,0,5.97,5.76,11.93,5.76s5.97-5.76,11.94-5.76,5.97,5.76,11.93,5.76,5.97-5.76,11.94-5.76,5.97,5.76,11.94,5.76"/></g></svg>